<svg xmlns="http://www.w3.org/2000/svg" viewBox="0 0 512 512" fill="#4ade80">
  <path d="M152.4 25.6c-17.6 0-32 14.4-32 32v16H38.4c-8.8 0-16 7.2-16 16s7.2 16 16 16h27.2l25.6 236.8c1.6 14.4 13.6 25.6 28 25.6h281.6c14.4 0 26.4-11.2 28-25.6l25.6-236.8h27.2c8.8 0 16-7.2 16-16s-7.2-16-16-16h-82v-16c0-17.6-14.4-32-32-32H152.4zm0 32h215.2v16H152.4v-16zM263.2 160c8.8 0 16 7.2 16 16v128c0 8.8-7.2 16-16 16s-16-7.2-16-16V176c0-8.8 7.2-16 16-16zm-64 0c8.8 0 16 7.2 16 16v128c0 8.8-7.2 16-16 16s-16-7.2-16-16V176c0-8.8 7.2-16 16-16zm128 0c8.8 0 16 7.2 16 16v128c0 8.8-7.2 16-16 16s-16-7.2-16-16V176c0-8.8 7.2-16 16-16zM167.2 400c-26.4 0-48 21.6-48 48s21.6 48 48 48 48-21.6 48-48-21.6-48-48-48zm192 0c-26.4 0-48 21.6-48 48s21.6 48 48 48 48-21.6 48-48-21.6-48-48-48z"/>
</svg>
